<?xml version="1.0" encoding="UTF-8"?>
<svg id="SVGDoc" width="27" height="26" xmlns="http://www.w3.org/2000/svg" version="1.1" xmlns:xlink="http://www.w3.org/1999/xlink" xmlns:avocode="https://avocode.com/" viewBox="0 0 27 26"><defs></defs><desc>Generated with Avocode.</desc><g><g><title>IG</title><path d="M0.53123,22.39959v-19.11823c0,-0.90399 0.32364,-1.67958 0.97103,-2.32697c0.64718,-0.64719 1.42295,-0.97098 2.327,-0.97098h19.11834c0.90395,0 1.67961,0.3238 2.327,0.97098c0.64718,0.64739 0.97092,1.42298 0.97092,2.32697v19.11823c0,0.90399 -0.32374,1.67958 -0.97092,2.32697c-0.64738,0.64719 -1.42305,0.97098 -2.327,0.97098h-19.11834c-0.90405,0 -1.67981,-0.3238 -2.327,-0.97098c-0.64738,-0.64739 -0.97103,-1.42298 -0.97103,-2.32697zM3.39405,21.71332c0,0.2903 0.09748,0.53305 0.29294,0.72803c0.19516,0.1956 0.43784,0.29299 0.72824,0.29299h17.89613c0.27885,0 0.519,-0.09739 0.71993,-0.29299c0.20083,-0.19498 0.30135,-0.43773 0.30135,-0.72803v-10.84832h-2.26012c0.22312,0.70322 0.33489,1.43415 0.33489,2.19299c0,1.40644 -0.35738,2.70371 -1.07144,3.89242c-0.71436,1.18851 -1.68539,2.12889 -2.91297,2.82094c-1.22779,0.69205 -2.56714,1.03777 -4.01785,1.03777c-2.19882,0 -4.07936,-0.75595 -5.64173,-2.26825c-1.56268,-1.5123 -2.34371,-3.33993 -2.34371,-5.48288c0,-0.75884 0.11136,-1.48977 0.33479,-2.19299h-2.36043zM13.40514,7.78457c-1.41748,0 -2.63118,0.48839 -3.64122,1.46495c-1.01014,0.97677 -1.51505,2.15701 -1.51505,3.5407c0,1.38411 0.50492,2.56434 1.51505,3.5407c1.01004,0.97677 2.22374,1.46495 3.64122,1.46495c1.42852,0 2.6477,-0.48818 3.65794,-1.46495c1.00994,-0.97636 1.51505,-2.1566 1.51505,-3.5407c0,-1.38369 -0.50512,-2.56393 -1.51505,-3.5407c-1.01024,-0.97657 -2.22942,-1.46495 -3.65794,-1.46495zM18.10939,6.76355c0,0.3238 0.11146,0.59715 0.33479,0.82025c0.22312,0.22331 0.49651,0.33476 0.82035,0.33476h2.91297c0.32354,0 0.59692,-0.11145 0.82025,-0.33476c0.22312,-0.2231 0.33489,-0.49645 0.33489,-0.82025v-2.76243c0,-0.31222 -0.11176,-0.58309 -0.33489,-0.81198c-0.22333,-0.22848 -0.49671,-0.34303 -0.82025,-0.34303h-2.91297c-0.32384,0 -0.59723,0.11455 -0.82035,0.34303c-0.22333,0.22889 -0.33479,0.49976 -0.33479,0.81198z" fill="#1a1a1a" fill-opacity="1"></path></g></g></svg>