<?xml version="1.0" encoding="UTF-8"?>
<svg id="SVGDoc" width="27" height="22" xmlns="http://www.w3.org/2000/svg" version="1.1" xmlns:xlink="http://www.w3.org/1999/xlink" xmlns:avocode="https://avocode.com/" viewBox="0 0 27 22"><defs></defs><desc>Generated with Avocode.</desc><g><g><title>TWTR</title><path d="M8.57149,21.5548c1.91945,0 3.72198,-0.30395 5.40736,-0.91247c1.68508,-0.60811 3.12475,-1.42298 4.3192,-2.44421c1.19405,-1.02123 2.22364,-2.19567 3.08868,-3.52396c0.86483,-1.32807 1.50928,-2.71466 1.93364,-4.16018c0.42396,-1.44511 0.63614,-2.89331 0.63614,-4.34421c0,-0.31243 -0.00578,-0.5467 -0.01672,-0.70322c1.06019,-0.77001 1.96414,-1.70191 2.71204,-2.79572c-1.038,0.44641 -2.0759,0.72555 -3.11391,0.837c1.17196,-0.70301 1.96424,-1.69633 2.37725,-2.97995c-1.07144,0.63623 -2.21553,1.07147 -3.43187,1.30595c-1.07144,-1.13847 -2.3885,-1.7077 -3.95088,-1.7077c-1.4957,0 -2.77071,0.52747 -3.82533,1.58199c-1.05472,1.05473 -1.58203,2.32987 -1.58203,3.82542c0,0.40175 0.04448,0.81487 0.13385,1.23875c-2.20976,-0.11145 -4.28303,-0.66662 -6.2193,-1.66573c-1.93648,-0.99869 -3.57991,-2.32966 -4.93021,-3.9927c-0.49124,0.837 -0.73665,1.74678 -0.73665,2.72872c0,0.92653 0.21765,1.78586 0.65296,2.5782c0.4353,0.79254 1.02118,1.43435 1.75784,1.92522c-0.87061,-0.0335 -1.68539,-0.26218 -2.44423,-0.68626v0.06679c0,1.30595 0.41018,2.45269 1.23042,3.44042c0.82035,0.98773 1.85542,1.6099 3.1055,1.8665c-0.46874,0.12303 -0.94326,0.18423 -1.42295,0.18423c-0.3126,0 -0.65296,-0.02771 -1.02118,-0.08374c0.34573,1.08264 0.98197,1.97278 1.90841,2.67021c0.92624,0.69764 1.97549,1.05762 3.14735,1.07975c-1.96444,1.54022 -4.20197,2.31043 -6.71318,2.31043c-0.47999,0 -0.91529,-0.02233 -1.30581,-0.06699c2.51121,1.61838 5.27898,2.42746 8.30362,2.42746z" fill="#1a1a1a" fill-opacity="1"></path></g></g></svg>